<svg width="1080" height="330" viewBox="0 0 1080 330" fill="none" xmlns="http://www.w3.org/2000/svg">
<path d="M279.75 182.78L280.86 177.11H302.13L301.72 179.03C301.58 179.77 301.75 180.43 302.23 181C302.7 181.57 303.31 181.86 304.05 181.86H343.95L332.1 178.31L333.21 172.84C333.34 172.1 333.18 171.44 332.7 170.87C332.23 170.3 331.62 170.01 330.88 170.01H298.07C296.04 170.01 294.15 169.57 292.4 168.69C290.64 167.81 289.19 166.66 288.05 165.25C286.9 163.83 286.08 162.18 285.57 160.29C285.06 158.4 285.01 156.44 285.42 154.42L288.66 137.91C289.27 134.87 290.77 132.37 293.17 130.41C295.57 128.45 298.32 127.47 301.42 127.47H348.21C350.24 127.47 352.12 127.91 353.88 128.79C355.63 129.67 357.09 130.82 358.23 132.23C359.38 133.65 360.22 135.29 360.76 137.14C361.3 139 361.37 140.94 360.96 142.96L359.74 148.73H338.47L338.88 146.81C339.01 146.07 338.85 145.41 338.37 144.84C337.9 144.27 337.29 143.98 336.55 143.98H296.24L307.99 147.53L307.18 151.78C307.04 152.52 307.21 153.18 307.69 153.75C308.16 154.32 308.77 154.61 309.51 154.61H341.31L343.23 154.71C345.19 154.85 346.96 155.37 348.55 156.28C350.14 157.19 351.47 158.36 352.55 159.77C353.63 161.19 354.41 162.79 354.88 164.58C355.35 166.37 355.39 168.24 354.98 170.2L351.44 187.92C350.83 190.96 349.33 193.46 346.93 195.41C344.53 197.37 341.78 198.35 338.68 198.35H292.4C290.37 198.35 288.48 197.91 286.73 197.03C284.97 196.15 283.52 195 282.38 193.59C281.23 192.17 280.4 190.52 279.9 188.63C279.39 186.74 279.34 184.78 279.75 182.76V182.78Z" fill="white"/>
<path d="M382.64 143.99L394.49 147.54L388.21 179.04C388.07 179.78 388.24 180.44 388.72 181.01C389.19 181.58 389.8 181.87 390.54 181.87H418.29C419.51 181.87 420.28 181.23 420.62 179.95L421.63 174.78H442.9L440.06 188.86C439.52 191.7 438.17 193.99 436.01 195.75C433.85 197.51 431.35 198.38 428.52 198.38H375.75C374.13 198.38 372.61 198.04 371.19 197.37C369.77 196.7 368.59 195.77 367.65 194.59C366.7 193.41 366.03 192.08 365.62 190.59C365.21 189.11 365.18 187.55 365.52 185.93L375.34 137.01C375.88 134.17 377.23 131.88 379.39 130.12C381.55 128.36 384.05 127.49 386.88 127.49H438.43C440.25 127.49 441.96 127.88 443.54 128.65C445.13 129.43 446.46 130.47 447.54 131.79C448.62 133.11 449.4 134.61 449.87 136.3C450.34 137.99 450.38 139.74 449.97 141.57L448.05 151.09H426.78L427.69 146.84C427.82 146.1 427.66 145.44 427.18 144.87C426.71 144.3 426.1 144.01 425.36 144.01H382.62L382.64 143.99Z" fill="white"/>
<path d="M505.49 178.33H479.56L475.51 198.38H454.24L468.42 127.49H536.68C538.57 127.49 540.31 127.88 541.9 128.65C543.49 129.43 544.8 130.47 545.85 131.79C546.9 133.11 547.66 134.61 548.13 136.3C548.6 137.99 548.67 139.74 548.33 141.57L542.86 168.81C542.32 171.58 540.97 173.86 538.81 175.65C536.65 177.44 534.15 178.33 531.32 178.33H526.76L535.77 198.38H514.5L505.49 178.33ZM521.09 161.72C521.63 161.72 522.12 161.55 522.56 161.21C523 160.87 523.28 160.43 523.42 159.89L525.95 146.83C526.08 146.09 525.93 145.43 525.49 144.86C525.05 144.29 524.46 144 523.72 144H473.89L485.64 147.55L482.8 161.73H521.08L521.09 161.72Z" fill="white"/>
<path d="M613.65 198.38H564.53C562.64 198.38 560.9 197.99 559.31 197.22C557.72 196.44 556.41 195.4 555.36 194.08C554.31 192.76 553.55 191.24 553.08 189.52C552.61 187.8 552.54 186.03 552.88 184.2L564.22 127.48H585.49L575.36 178.32L563.51 181.87H603.41C603.95 181.87 604.44 181.68 604.88 181.31C605.32 180.94 605.6 180.48 605.74 179.94L616.27 127.48H637.54L625.29 188.85C624.75 191.69 623.38 193.98 621.19 195.74C619 197.5 616.48 198.37 613.65 198.37V198.38Z" fill="white"/>
<path d="M708.35 198.38H688.3L675.34 141.66H662.78L674.53 145.21L663.49 198.38H641.61L655.79 127.49H694.17L701.87 171.24L723.75 127.49H764.46L750.28 198.38H728.51L739.14 141.66L708.35 198.38Z" fill="white"/>
<path d="M835.35 198.38H815.3L802.34 141.66H789.78L801.53 145.21L790.49 198.38H768.61L782.79 127.49H821.17L828.87 171.24L850.75 127.49H891.46L877.28 198.38H855.51L866.14 141.66L835.35 198.38Z" fill="white"/>
<path d="M979.46 127.48L944.62 170.02L939.35 198.38H916.26L920.92 173.57H933.48L921.63 170.02L899.15 127.48H921.63L934.59 153.51L954.64 127.48H979.45H979.46Z" fill="white"/>
<path d="M122.4 157.41C122.4 157.41 164.68 104.22 211.17 110.49L220.68 96.8199C220.68 96.8199 154.89 94.1799 122.4 157.42V157.41Z" fill="#0093F7"/>
<path d="M213.55 112.19C213.55 112.19 264.22 153.88 175.87 226.95C175.87 226.95 250.53 195.94 245.78 133.84L231.52 111.05" fill="#FFBD00"/>
<path d="M122.4 157.41C123.42 155.9 123.98 153.64 124.78 151.98C127.06 147.24 126.78 148.17 129.63 143.8C138.77 129.79 150.53 117.73 164.23 109.01C183.99 96.4298 212.9 86.9498 234.98 98.2098C253.16 107.48 251.88 132.16 246.71 149.62C237.07 182.18 221.9 206.36 192.79 220.36C190.12 221.64 187.41 222.82 184.66 223.9C181.92 224.97 178.42 225.48 175.88 226.96C182.78 222.96 184.51 220.81 190.82 215.82C203.62 205.72 213.55 194.35 222.55 180.16C232.52 164.44 238.8 142.94 229.63 125.06C225.42 116.85 217.13 112.58 208.62 112.58C208.62 112.58 188.02 110.3 163.54 131.38C163.54 131.38 185.02 107.26 212.67 104.22C212.67 104.22 169.42 87.7598 122.4 157.41Z" fill="white"/>
<path d="M171.95 114.38C171.95 114.38 180.18 125.52 180.19 125.54C180.99 126.62 182.31 127.07 183.55 127.05C184.61 127.04 186.37 126.7 186.22 125.16C186.07 123.68 183.91 122.66 182.87 121.94C181.13 120.74 179.39 119.53 177.66 118.33C176.34 117.41 175.01 116.5 173.69 115.58C173.21 115.25 172.32 114.87 171.95 114.38Z" fill="white"/>
<path d="M180.98 109.35C180.98 109.35 191.19 119.83 191.21 119.85C192.2 120.86 193.66 121.13 194.97 120.92C196.08 120.74 197.91 120.1 197.53 118.5C197.17 116.96 194.75 116.22 193.55 115.62C191.55 114.62 189.55 113.62 187.54 112.63C186.02 111.87 184.49 111.11 182.97 110.35C182.42 110.07 181.42 109.81 180.97 109.35H180.98Z" fill="white"/>
<path d="M131.7 194.5C131.7 194.5 118.74 212.08 115.81 203.06C115.81 203.06 118.16 213.55 120.9 215.48" fill="#0093F7"/>
<path d="M131.52 194.98C131.52 194.98 127.48 227.37 163.38 231.27C163.38 231.27 145.41 231.25 142.38 230.32C142.38 230.32 135.41 228.95 134.11 227.1C132.81 225.25 131.89 224.91 131.74 223.6C131.59 222.3 123.95 212.39 123.95 212.12C123.95 211.85 124.64 209.03 124.64 209.03L127.09 205.4" fill="#FFBD00"/>
<path d="M164.69 121.4C164.69 121.4 171.9 131.16 171.91 131.18C172.61 132.13 173.77 132.52 174.86 132.5C175.78 132.49 177.33 132.19 177.2 130.85C177.07 129.56 175.18 128.66 174.26 128.03C172.74 126.97 171.21 125.92 169.69 124.86C168.53 124.06 167.37 123.25 166.21 122.45C165.79 122.16 165.01 121.83 164.69 121.4Z" fill="white"/>
<path d="M115.81 203.05C115.81 203.05 117.97 241.17 164.69 230.93C164.69 230.93 120.24 235.8 131.7 194.49C131.7 194.49 119.87 220.18 115.81 203.05Z" fill="white"/>
</svg>
